<?xml version="1.0" encoding="UTF-8"?>
<!DOCTYPE svg PUBLIC "-//W3C//DTD SVG 1.1//EN" "http://www.w3.org/Graphics/SVG/1.1/DTD/svg11.dtd">
<svg xmlns="http://www.w3.org/2000/svg" version="1.1" width="225px" height="225px" style="shape-rendering:geometricPrecision; text-rendering:geometricPrecision; image-rendering:optimizeQuality; fill-rule:evenodd; clip-rule:evenodd" xmlns:xlink="http://www.w3.org/1999/xlink">
<g><path style="opacity:1" fill="#030303" d="M 102.5,-0.5 C 108.833,-0.5 115.167,-0.5 121.5,-0.5C 170.95,6.10251 203.783,33.1025 220,80.5C 221.976,87.8823 223.476,95.2156 224.5,102.5C 224.5,108.833 224.5,115.167 224.5,121.5C 217.897,170.95 190.897,203.783 143.5,220C 136.118,221.976 128.784,223.476 121.5,224.5C 115.167,224.5 108.833,224.5 102.5,224.5C 53.0501,217.897 20.2168,190.897 4,143.5C 2.02413,136.118 0.524132,128.784 -0.5,121.5C -0.5,115.167 -0.5,108.833 -0.5,102.5C 6.10251,53.0501 33.1025,20.2168 80.5,4C 87.8823,2.02413 95.2156,0.524132 102.5,-0.5 Z"/></g>
<g><path style="opacity:1" fill="#f8f8f8" d="M 180.5,175.5 C 167.01,176.496 153.344,176.829 139.5,176.5C 127.217,159.71 114.717,143.044 102,126.5C 85.9347,143.062 70.1014,159.729 54.5,176.5C 50.6286,176.815 46.9619,176.482 43.5,175.5C 61.484,156.847 79.1507,137.847 96.5,118.5C 78.3079,94.8084 60.3079,70.9751 42.5,47C 56.5,46.3333 70.5,46.3333 84.5,47C 95.9744,62.6416 107.641,78.1416 119.5,93.5C 133.989,78.1763 148.322,62.6763 162.5,47C 166.541,46.1735 170.541,46.3401 174.5,47.5C 158.167,65.5 141.833,83.5 125.5,101.5C 143.842,126.196 162.176,150.863 180.5,175.5 Z"/></g>
<g><path style="opacity:1" fill="#6e6e6e" d="M 79.5,56.5 C 73.642,56.1778 67.9753,56.5111 62.5,57.5C 61.7109,57.2172 61.0442,56.7172 60.5,56C 67.0137,55.18 73.3471,55.3467 79.5,56.5 Z"/></g>
<g><path style="opacity:1" fill="#050505" d="M 79.5,56.5 C 107.167,93.1667 134.833,129.833 162.5,166.5C 156.69,167.49 150.69,167.823 144.5,167.5C 116.813,131.139 89.4797,94.4727 62.5,57.5C 67.9753,56.5111 73.642,56.1778 79.5,56.5 Z"/></g>
<g><path style="opacity:1" fill="#717171" d="M 162.5,166.5 C 163.043,166.56 163.376,166.893 163.5,167.5C 157.012,168.817 150.678,168.817 144.5,167.5C 150.69,167.823 156.69,167.49 162.5,166.5 Z"/></g>
<g><path style="opacity:1" fill="#989898" d="M 43.5,175.5 C 46.9619,176.482 50.6286,176.815 54.5,176.5C 50.6493,177.809 46.6493,177.809 42.5,176.5C 42.6236,175.893 42.9569,175.56 43.5,175.5 Z"/></g>
<g><path style="opacity:1" fill="#9d9d9d" d="M 180.5,175.5 C 181.043,175.56 181.376,175.893 181.5,176.5C 167.339,177.826 153.339,177.826 139.5,176.5C 153.344,176.829 167.01,176.496 180.5,175.5 Z"/></g>
</svg>
